<svg xmlns="http://www.w3.org/2000/svg" xmlns:xlink="http://www.w3.org/1999/xlink" viewBox="0 0 425.2 131.46"><defs><linearGradient id="New_Gradient_Swatch_1" x1="62.26" y1="104.99" x2="62.26" y2="11.6" gradientUnits="userSpaceOnUse"><stop offset="0" stop-color="#fff"/><stop offset="1" stop-color="#efa932"/></linearGradient></defs><g id="Layer_2" data-name="Layer 2"><g id="Layer_1-2" data-name="Layer 1"><path d="M151.39,84.13a15.56,15.56,0,0,0-2.59-1.89c-1-.57-2-1.13-3-1.66l-3-1.56a20.49,20.49,0,0,1-2.58-1.61,8.79,8.79,0,0,1-1.82-1.77,3.35,3.35,0,0,1-.7-2.06,3.8,3.8,0,0,1,.34-1.57,3.87,3.87,0,0,1,1-1.37,5.17,5.17,0,0,1,1.68-1,6.75,6.75,0,0,1,2.36-.38,8.32,8.32,0,0,1,2.73.42A7.1,7.1,0,0,1,148,70.89a7.58,7.58,0,0,1,1.59,1.87,11,11,0,0,1,1.1,2.4L153.19,74a9.51,9.51,0,0,0-3.39-4.92,10.75,10.75,0,0,0-6.4-1.7,12.5,12.5,0,0,0-4,.59,8.51,8.51,0,0,0-2.91,1.61A6.65,6.65,0,0,0,134.7,72a7.51,7.51,0,0,0-.62,3,6,6,0,0,0,.68,2.9,8.35,8.35,0,0,0,1.77,2.27A14.69,14.69,0,0,0,139,82.09c.94.55,1.9,1.08,2.87,1.58l2.88,1.51a16.42,16.42,0,0,1,2.51,1.61,8,8,0,0,1,1.77,1.87,4.1,4.1,0,0,1,.68,2.32,3.75,3.75,0,0,1-.49,1.92,4.69,4.69,0,0,1-1.3,1.4,5.82,5.82,0,0,1-1.85.86,7.88,7.88,0,0,1-2.1.29,8.72,8.72,0,0,1-2.63-.4,7.65,7.65,0,0,1-2.25-1.17A8.11,8.11,0,0,1,137.36,92a9.51,9.51,0,0,1-1.21-2.5l-2.58,1.07A12.08,12.08,0,0,0,135,93.4a8.67,8.67,0,0,0,2.12,2.11A9.49,9.49,0,0,0,140,96.82a13.69,13.69,0,0,0,3.66.45,14,14,0,0,0,4.46-.64,9.39,9.39,0,0,0,3.2-1.77,7.19,7.19,0,0,0,1.94-2.6,7.89,7.89,0,0,0,.64-3.18,5.38,5.38,0,0,0-.69-2.71A9.14,9.14,0,0,0,151.39,84.13Zm21.29,6.53a6.36,6.36,0,0,1-1,1.38,8.76,8.76,0,0,1-1.33,1.13,6.16,6.16,0,0,1-1.45.77,3.87,3.87,0,0,1-1.39.28,5.36,5.36,0,0,1-1.89-.32,5.16,5.16,0,0,1-1.53-.85,3.79,3.79,0,0,1-1-1.26,3.19,3.19,0,0,1-.38-1.54V74.6h-4.36V90.25a6.58,6.58,0,0,0,.54,2.65,6.76,6.76,0,0,0,1.48,2.16,7.27,7.27,0,0,0,2.21,1.46,6.87,6.87,0,0,0,2.71.55,6.64,6.64,0,0,0,2-.36,10,10,0,0,0,2.1-1,10.91,10.91,0,0,0,1.88-1.46,8.79,8.79,0,0,0,1.44-1.78v4.11H177v-22h-4.36Zm9.69-26.07v32h4.36V63.34h-1.25Zm19.26,29.35a2.59,2.59,0,0,1-1.34.36,2.5,2.5,0,0,1-.94-.18,2.64,2.64,0,0,1-.76-.5,2.38,2.38,0,0,1-.49-.75,2.23,2.23,0,0,1-.19-.92V76.44h4.94V74.6h-4.94V67.09h-1.25c-.22,1.12-.47,2.17-.76,3.17a9.31,9.31,0,0,1-1.18,2.63,5.6,5.6,0,0,1-1.95,1.8,6.07,6.07,0,0,1-3,.67v1.08h3.81V92A7.91,7.91,0,0,0,193.8,94a4.46,4.46,0,0,0,.79,1.62,3.73,3.73,0,0,0,1.34,1,4.7,4.7,0,0,0,1.92.37,6.83,6.83,0,0,0,3.58-.88,6.73,6.73,0,0,0,2.34-2.4l-1.09-.74A3.89,3.89,0,0,1,201.63,93.94Zm19.24-18.19a6.51,6.51,0,0,0-2.42-1.18,13.75,13.75,0,0,0-3.66-.42,14.4,14.4,0,0,0-3.4.4,11.06,11.06,0,0,0-2.83,1.09,6.08,6.08,0,0,0-1.92,1.63,3.25,3.25,0,0,0-.72,2,3,3,0,0,0,.16,1,2.45,2.45,0,0,0,.47.82,2.34,2.34,0,0,0,2.74.5A1.87,1.87,0,0,0,210,81a2.46,2.46,0,0,0,.34-.93,6.65,6.65,0,0,0,.09-1.11,5.64,5.64,0,0,1,.14-1.22,2.54,2.54,0,0,1,.55-1.07,2.8,2.8,0,0,1,1.09-.76,4.86,4.86,0,0,1,1.8-.28,5.39,5.39,0,0,1,1.77.27,3.06,3.06,0,0,1,1.35.91,4.52,4.52,0,0,1,.85,1.67,9.64,9.64,0,0,1,.3,2.53v1.37c-1,.25-2,.52-3,.8s-2,.62-3,1a23.11,23.11,0,0,0-2.76,1.24,11.35,11.35,0,0,0-2.27,1.6,7,7,0,0,0-1.54,2,5.75,5.75,0,0,0-.56,2.55,5.93,5.93,0,0,0,.39,2.17,4.85,4.85,0,0,0,1.13,1.74,5.23,5.23,0,0,0,1.78,1.16,6.36,6.36,0,0,0,2.33.42,8.56,8.56,0,0,0,2.45-.32,8.76,8.76,0,0,0,1.92-.83,12.62,12.62,0,0,0,1.62-1.13q.75-.62,1.53-1.2v3h4.38V80a6.83,6.83,0,0,0-.41-2.4A4.39,4.39,0,0,0,220.87,75.75ZM218.23,92q-.66.49-1.29.93a12,12,0,0,1-1.24.77,7.11,7.11,0,0,1-1.29.52,5.06,5.06,0,0,1-1.41.2,3,3,0,0,1-1.34-.32,3.84,3.84,0,0,1-1.14-.87,4.12,4.12,0,0,1-.78-1.26,4,4,0,0,1-.3-1.53,3,3,0,0,1,.39-1.49,5.71,5.71,0,0,1,1-1.36,10.2,10.2,0,0,1,1.55-1.19,17.56,17.56,0,0,1,1.86-1q1-.48,2-.87c.67-.26,1.33-.49,2-.69Zm27-15.89a5.75,5.75,0,0,0-1.76-1.43,4.66,4.66,0,0,0-2.17-.52,9.35,9.35,0,0,0-4.38,1.12,14.54,14.54,0,0,0-4.13,3.35v-4h-4.37v22h4.37V80.29a15.48,15.48,0,0,1,1.53-1.3,14.93,14.93,0,0,1,1.6-1,8.51,8.51,0,0,1,1.57-.64,5.34,5.34,0,0,1,1.48-.23,3.2,3.2,0,0,1,2.52,1.13,4.84,4.84,0,0,1,1,3.29v15h4.38V80.81a7.38,7.38,0,0,0-.44-2.59A7,7,0,0,0,245.25,76.1Zm37.38,7.55H288v10a9.17,9.17,0,0,1-2.71,1.45,10.6,10.6,0,0,1-3.4.51,12.51,12.51,0,0,1-4.83-.92,11.4,11.4,0,0,1-3.91-2.62A12.16,12.16,0,0,1,270.55,88a14.58,14.58,0,0,1-1-5.42,15.94,15.94,0,0,1,.88-5.43A12,12,0,0,1,272.93,73a11,11,0,0,1,3.76-2.62,12.12,12.12,0,0,1,4.75-.92,8.39,8.39,0,0,1,5.08,1.62,14.4,14.4,0,0,1,4,5.08l2.07-1.39A18,18,0,0,0,290.49,72a14.5,14.5,0,0,0-2.81-2.34A14.85,14.85,0,0,0,284.17,68a13.57,13.57,0,0,0-4.18-.62,17.08,17.08,0,0,0-4.48.57,16.6,16.6,0,0,0-3.88,1.57,15.93,15.93,0,0,0-3.2,2.42,14.86,14.86,0,0,0-3.93,6.67,14.63,14.63,0,0,0-.52,3.91,13.58,13.58,0,0,0,.55,3.88,13.88,13.88,0,0,0,1.58,3.51,14,14,0,0,0,2.48,3,15.61,15.61,0,0,0,3.28,2.31,16.93,16.93,0,0,0,3.95,1.5,18.78,18.78,0,0,0,4.49.53c1.49,0,2.83-.06,4-.17a23.77,23.77,0,0,0,3.24-.54,18.17,18.17,0,0,0,2.73-.87,25.92,25.92,0,0,0,2.52-1.18V82H282.63Zm30.26-7.9a6.39,6.39,0,0,0-2.41-1.18,13.77,13.77,0,0,0-3.67-.42,14.46,14.46,0,0,0-3.4.4,11,11,0,0,0-2.82,1.09,6.13,6.13,0,0,0-1.93,1.63,3.31,3.31,0,0,0-.72,2,3,3,0,0,0,.17,1,2.29,2.29,0,0,0,.47.82,2.34,2.34,0,0,0,2.74.5A2,2,0,0,0,302,81a2.64,2.64,0,0,0,.34-.93,6.65,6.65,0,0,0,.09-1.11,5.64,5.64,0,0,1,.14-1.22,2.54,2.54,0,0,1,.55-1.07,2.8,2.8,0,0,1,1.09-.76,4.86,4.86,0,0,1,1.8-.28,5.39,5.39,0,0,1,1.77.27,3.12,3.12,0,0,1,1.35.91,4.52,4.52,0,0,1,.85,1.67,9.27,9.27,0,0,1,.29,2.53v1.37l-3,.8q-1.55.44-3,1a23,23,0,0,0-2.75,1.24,10.8,10.8,0,0,0-2.27,1.6,6.87,6.87,0,0,0-1.54,2,5.62,5.62,0,0,0-.56,2.55,5.93,5.93,0,0,0,.39,2.17,5,5,0,0,0,1.12,1.74,5.33,5.33,0,0,0,1.78,1.16,6.46,6.46,0,0,0,2.34.42,8.61,8.61,0,0,0,2.45-.32,8.76,8.76,0,0,0,1.92-.83,12.62,12.62,0,0,0,1.62-1.13c.5-.41,1-.81,1.52-1.2v3h4.39V80a6.83,6.83,0,0,0-.41-2.4A4.41,4.41,0,0,0,312.89,75.75ZM310.25,92c-.43.33-.86.64-1.28.93a12,12,0,0,1-1.24.77,7.11,7.11,0,0,1-1.29.52,5.06,5.06,0,0,1-1.41.2,3,3,0,0,1-1.34-.32,3.84,3.84,0,0,1-1.14-.87,4.12,4.12,0,0,1-.78-1.26,4,4,0,0,1-.3-1.53,3.14,3.14,0,0,1,.38-1.49,6,6,0,0,1,1.06-1.36,10.2,10.2,0,0,1,1.55-1.19,17.4,17.4,0,0,1,1.85-1c.65-.32,1.31-.61,2-.87s1.32-.49,1.95-.69Zm23.25-17a3.52,3.52,0,0,0-1.07-.57,3.83,3.83,0,0,0-1.33-.22,4.24,4.24,0,0,0-1.73.37,7.5,7.5,0,0,0-1.65,1A13.29,13.29,0,0,0,326.18,77a19.71,19.71,0,0,0-1.37,1.76V74.6h-4.34v22h4.34V81.36c.31-.49.6-.94.9-1.36a9.5,9.5,0,0,1,.9-1.09,4,4,0,0,1,.88-.71,1.62,1.62,0,0,1,.87-.26,2.46,2.46,0,0,1,.92.15,8,8,0,0,1,.72.35,5.35,5.35,0,0,0,.8.35,3.81,3.81,0,0,0,1.18.15,2.85,2.85,0,0,0,1.85-.54,1.94,1.94,0,0,0,.67-1.61,2,2,0,0,0-.27-1A2.77,2.77,0,0,0,333.5,74.94Zm19.08-10.35V76.2a9.15,9.15,0,0,0-2.23-1.49,6.68,6.68,0,0,0-2.81-.56,10.39,10.39,0,0,0-3.06.45,11.6,11.6,0,0,0-2.75,1.26,12.67,12.67,0,0,0-2.35,1.91,12.51,12.51,0,0,0-3,5.17,10.51,10.51,0,0,0-.41,3,12.74,12.74,0,0,0,.72,4.28,12.09,12.09,0,0,0,2,3.56,9.79,9.79,0,0,0,2.94,2.44,7.78,7.78,0,0,0,3.64.9,9.64,9.64,0,0,0,1.9-.19,11.86,11.86,0,0,0,1.92-.52,12,12,0,0,0,1.83-.82,10.43,10.43,0,0,0,1.64-1.1v2.63h4.34V63.34h-1.29Zm0,27.85a6.79,6.79,0,0,1-1,.86,7.39,7.39,0,0,1-1.18.71,7.1,7.1,0,0,1-1.31.5,5.45,5.45,0,0,1-1.38.18,4.93,4.93,0,0,1-2.69-.79,7.37,7.37,0,0,1-2.2-2.15,11.05,11.05,0,0,1-1.49-3.19,13.81,13.81,0,0,1-.54-3.92,12.3,12.3,0,0,1,.49-3.58,9.16,9.16,0,0,1,1.34-2.79,6.5,6.5,0,0,1,2-1.83,4.84,4.84,0,0,1,2.44-.65,5,5,0,0,1,2,.42,5.79,5.79,0,0,1,3.5,5.37Zm27.33-2.1a8.25,8.25,0,0,1-1.81,1.72,9.87,9.87,0,0,1-2.38,1.21,8.38,8.38,0,0,1-2.74.46,6.5,6.5,0,0,1-3.14-.78,7.6,7.6,0,0,1-2.45-2.15,10.5,10.5,0,0,1-1.6-3.27,14.15,14.15,0,0,1-.58-4.1h16.41a8.8,8.8,0,0,0-.72-3.52,9.22,9.22,0,0,0-2-3,9.4,9.4,0,0,0-3.1-2,10,10,0,0,0-4-.76,10.51,10.51,0,0,0-4.43.92A10,10,0,0,0,364,77.63a11.74,11.74,0,0,0-2.19,3.89,14.94,14.94,0,0,0-.78,4.9,10.12,10.12,0,0,0,.85,4.14,10.75,10.75,0,0,0,2.31,3.38,11.16,11.16,0,0,0,3.42,2.29,10.52,10.52,0,0,0,4.19.84,9.3,9.3,0,0,0,3.37-.65,11.84,11.84,0,0,0,3.07-1.75,12.35,12.35,0,0,0,2.46-2.59,10.12,10.12,0,0,0,1.52-3.18L381,88.34A6.13,6.13,0,0,1,379.91,90.34Zm-14.11-11A6.79,6.79,0,0,1,367,77.47a5.36,5.36,0,0,1,1.62-1.23,4.2,4.2,0,0,1,1.89-.45,5.56,5.56,0,0,1,4,1.69,5.59,5.59,0,0,1,1.21,1.86,6.19,6.19,0,0,1,.44,2.33l-10.91,0A7.17,7.17,0,0,1,365.8,79.32Zm37.31-3.22a5.75,5.75,0,0,0-1.76-1.43,4.65,4.65,0,0,0-2.16-.52,9.32,9.32,0,0,0-4.38,1.12,14.71,14.71,0,0,0-4.14,3.35v-4h-4.36v22h4.36V80.29a14.52,14.52,0,0,1,1.54-1.3,13.9,13.9,0,0,1,1.59-1,8.59,8.59,0,0,1,1.58-.64,5.33,5.33,0,0,1,1.47-.23,3.18,3.18,0,0,1,2.52,1.13,4.84,4.84,0,0,1,1,3.29v15h4.38V80.81a7.61,7.61,0,0,0-.44-2.59A6.82,6.82,0,0,0,403.11,76.1ZM424.64,88a6.47,6.47,0,0,0-1.45-1.82,10.5,10.5,0,0,0-2.05-1.38c-.76-.4-1.55-.77-2.35-1.12l-2.36-1a12.71,12.71,0,0,1-2.05-1.1,5.49,5.49,0,0,1-1.45-1.33,2.77,2.77,0,0,1-.56-1.72,2.16,2.16,0,0,1,.32-1.12,2.89,2.89,0,0,1,.85-.93,4.57,4.57,0,0,1,1.33-.64,5.78,5.78,0,0,1,1.7-.23,6,6,0,0,1,3.31,1,9.39,9.39,0,0,1,2.8,3l1.6-1.43a14.33,14.33,0,0,0-1.9-2.09,8.17,8.17,0,0,0-1.82-1.24,6.76,6.76,0,0,0-1.88-.6,13.22,13.22,0,0,0-2-.15,9.48,9.48,0,0,0-3,.46,7.47,7.47,0,0,0-2.37,1.28,6.11,6.11,0,0,0-1.56,2,5.48,5.48,0,0,0-.56,2.45,5.61,5.61,0,0,0,.5,2.45A6.33,6.33,0,0,0,411,84.56a10,10,0,0,0,1.9,1.4c.71.4,1.43.78,2.16,1.12l2.16,1a11.3,11.3,0,0,1,1.89,1.09,5.36,5.36,0,0,1,1.34,1.35,3.12,3.12,0,0,1,.5,1.75,2.65,2.65,0,0,1-.31,1.21,3.28,3.28,0,0,1-.85,1,4.29,4.29,0,0,1-1.3.72,4.7,4.7,0,0,1-1.66.28,6.12,6.12,0,0,1-1.75-.24,5.53,5.53,0,0,1-1.56-.73A9,9,0,0,1,412,93.29a17.87,17.87,0,0,1-1.54-1.92L408.67,93a11.24,11.24,0,0,0,2,2.09,9.61,9.61,0,0,0,2.07,1.24,8.52,8.52,0,0,0,2,.59,13.65,13.65,0,0,0,2,.16,11.8,11.8,0,0,0,3.7-.52,7.48,7.48,0,0,0,2.63-1.4A5.9,5.9,0,0,0,424.68,93a6.68,6.68,0,0,0,.52-2.61A5,5,0,0,0,424.64,88Z" style="fill:#1d71b8"/><path d="M346.21,122.9a4.86,4.86,0,0,0,1.21-.89,3.53,3.53,0,0,0,.79-1.15,3.46,3.46,0,0,0,.28-1.37,3.76,3.76,0,0,0-.37-1.64,3.55,3.55,0,0,0-1.07-1.29,5,5,0,0,0-1.77-.85,9.21,9.21,0,0,0-2.48-.3h-5.43v15.68H340v-7.37h1.85l5.45,7.37h3.05l-5.71-7.61A6.37,6.37,0,0,0,346.21,122.9Zm-3-.21a5.33,5.33,0,0,1-1.64.24H340v-6.55h2.32a3.58,3.58,0,0,1,1.33.24,3.23,3.23,0,0,1,1.05.66,3,3,0,0,1,.68,1,3.27,3.27,0,0,1,.26,1.29,3.05,3.05,0,0,1-.31,1.39,3.14,3.14,0,0,1-.87,1A4.1,4.1,0,0,1,343.16,122.69Zm9.16,8.4h10.91v-1H355v-7h5.53v-1H355v-5.6h8.27v-1H352.32Zm22.18-6.86a8.23,8.23,0,0,0-1.42-1c-.53-.32-1.08-.62-1.63-.91l-1.62-.87a10.49,10.49,0,0,1-1.42-.88,4.88,4.88,0,0,1-1-1,1.85,1.85,0,0,1-.39-1.14,2.2,2.2,0,0,1,.74-1.61,2.83,2.83,0,0,1,.92-.54,3.73,3.73,0,0,1,1.3-.21,4.38,4.38,0,0,1,1.5.23,3.59,3.59,0,0,1,1.18.66,4.15,4.15,0,0,1,.88,1,6.63,6.63,0,0,1,.6,1.32l1.35-.62a5.15,5.15,0,0,0-1.86-2.7,5.84,5.84,0,0,0-3.52-.94,6.64,6.64,0,0,0-2.19.33,4.71,4.71,0,0,0-1.61.88,3.89,3.89,0,0,0-1,1.33,4.27,4.27,0,0,0-.34,1.68,3.39,3.39,0,0,0,.37,1.59,4.88,4.88,0,0,0,1,1.25,8,8,0,0,0,1.38,1c.52.31,1.05.6,1.58.87l1.59.83a10.24,10.24,0,0,1,1.38.89,4.46,4.46,0,0,1,1,1,2.31,2.31,0,0,1,.37,1.28,2,2,0,0,1-.27,1.05,2.6,2.6,0,0,1-.71.77,3.28,3.28,0,0,1-1,.47,4.09,4.09,0,0,1-1.15.16,4.63,4.63,0,0,1-1.45-.22,4.06,4.06,0,0,1-1.24-.64,4.15,4.15,0,0,1-1-1,5.46,5.46,0,0,1-.67-1.37l-1.42.58a6.74,6.74,0,0,0,.8,1.56,4.73,4.73,0,0,0,1.17,1.15,5.16,5.16,0,0,0,1.57.73,7.72,7.72,0,0,0,2,.24,7.63,7.63,0,0,0,2.45-.35,5.05,5.05,0,0,0,1.76-1,3.88,3.88,0,0,0,1.06-1.43,4.28,4.28,0,0,0,.36-1.75,3,3,0,0,0-.38-1.49A5.34,5.34,0,0,0,374.5,124.23Zm19.82-5.18a7.47,7.47,0,0,0-1.34-1.64,8.41,8.41,0,0,0-1.74-1.26,8.51,8.51,0,0,0-2.07-.82,9.55,9.55,0,0,0-4.67,0,8.51,8.51,0,0,0-2.07.82,8.75,8.75,0,0,0-1.75,1.26,7.71,7.71,0,0,0-1.33,1.64,7.86,7.86,0,0,0-.86,1.94,7.72,7.72,0,0,0-.3,2.16,8.26,8.26,0,0,0,2.49,5.88,9,9,0,0,0,10.56,1.3A8.58,8.58,0,0,0,393,129a7.73,7.73,0,0,0,1.34-1.69,8.14,8.14,0,0,0,.86-2,7.81,7.81,0,0,0,.31-2.21,7.37,7.37,0,0,0-.31-2.16A7.86,7.86,0,0,0,394.32,119.05Zm-2.3,7.12a7.52,7.52,0,0,1-1.06,2.38,5.1,5.1,0,0,1-1.75,1.56,4.84,4.84,0,0,1-2.38.57,4.93,4.93,0,0,1-2.41-.57,4.82,4.82,0,0,1-1.74-1.56,7.3,7.3,0,0,1-1.06-2.38,12.45,12.45,0,0,1-.35-3,11.81,11.81,0,0,1,.35-3,7,7,0,0,1,1.06-2.32,4.8,4.8,0,0,1,1.74-1.52,5.16,5.16,0,0,1,2.41-.54,4.88,4.88,0,0,1,4.13,2.06A7.18,7.18,0,0,1,392,120.2a11.34,11.34,0,0,1,.37,3A12,12,0,0,1,392,126.17Zm15.57-3.27a5.12,5.12,0,0,0,1.22-.89,3.66,3.66,0,0,0,.78-1.15,3.46,3.46,0,0,0,.28-1.37,3.76,3.76,0,0,0-.37-1.64,3.55,3.55,0,0,0-1.07-1.29,5,5,0,0,0-1.77-.85,9.15,9.15,0,0,0-2.48-.3h-5.43v15.68h2.64v-7.37h1.84l5.46,7.37h3.05L406,123.48A6.22,6.22,0,0,0,407.59,122.9Zm-3-.21a5.37,5.37,0,0,1-1.64.24h-1.52v-6.55h2.32a3.61,3.61,0,0,1,1.33.24,3.18,3.18,0,0,1,1,.66,3,3,0,0,1,.69,1,3.45,3.45,0,0,1,.25,1.29,3.19,3.19,0,0,1-.31,1.39,3.23,3.23,0,0,1-.86,1A4.21,4.21,0,0,1,404.55,122.69Zm6.65-7.28v1h5.68v14.67h2.64V116.42h5.68v-1Z" style="fill:#1d71b8"/><path d="M16.24,25.15A54.67,54.67,0,0,1,116.8,58.54l-2.4-1.61L90.47,79.83,78,89.2,57.29,101l-7.37,6.86A54.57,54.57,0,0,1,16.24,25.15Z" style="fill:url(#New_Gradient_Swatch_1)"/><path d="M149.16,48.42c-37.9-6-70.34,80.32-132,61l.64-1.8C64,118.44,99.12,33.18,149.82,47Z" style="fill:#1d71b8;fill-rule:evenodd"/><path d="M127.39,27.81C93.28,22.44,64.08,100.09,8.57,82.68l.57-1.62c41.59,9.76,73.21-67,118.85-54.52Z" style="fill:#3aaa35;fill-rule:evenodd"/><path d="M105.62,7.17C75.31,2.41,49.35,71.43,0,56l.51-1.43C37.48,63.2,65.6-5,106.15,6.05Z" style="fill:#f39200;fill-rule:evenodd"/></g></g></svg>