<?xml version="1.0" encoding="UTF-8"?>
<!-- Generator: Adobe Illustrator 19.0.0, SVG Export Plug-In . SVG Version: 6.00 Build 0)  -->
<svg version="1.1" id="Layer_1" xmlns="http://www.w3.org/2000/svg" xmlns:xlink="http://www.w3.org/1999/xlink" x="0px" y="0px" viewBox="5 40.5 210 120.5" style="enable-background:new 5 40.5 210 120.5;" xml:space="preserve">
<style type="text/css">
	.st0{fill:#FFFFFF;}
	.st1{fill:#F4F4F4;}
</style>
<g id="XMLID_38_">
	<path id="XMLID_52_" class="st0" d="M28.6,124.6c-0.5-0.4-1-0.8-1.6-1.2c-0.6-0.4-1.2-0.7-1.8-1c-0.6-0.3-1.2-0.7-1.8-1   c-0.6-0.3-1.1-0.7-1.6-1s-0.8-0.7-1.1-1.1c-0.3-0.4-0.4-0.8-0.4-1.3c0-0.3,0.1-0.7,0.2-1c0.1-0.3,0.3-0.6,0.6-0.9s0.6-0.5,1-0.6   c0.4-0.2,0.9-0.2,1.5-0.2s1.2,0.1,1.7,0.3c0.5,0.2,0.9,0.4,1.3,0.7c0.4,0.3,0.7,0.7,1,1.2s0.5,0.9,0.7,1.5l1.5-0.7   c-0.4-1.3-1.1-2.4-2.1-3.1s-2.3-1.1-4-1.1c-0.9,0-1.8,0.1-2.5,0.4c-0.7,0.2-1.3,0.6-1.8,1s-0.9,0.9-1.1,1.5   c-0.3,0.6-0.4,1.2-0.4,1.9s0.1,1.3,0.4,1.8c0.3,0.5,0.6,1,1.1,1.4s1,0.8,1.6,1.1c0.6,0.3,1.2,0.7,1.8,1c0.6,0.3,1.2,0.6,1.8,0.9   c0.6,0.3,1.1,0.6,1.6,1s0.8,0.7,1.1,1.2c0.3,0.4,0.4,0.9,0.4,1.4s-0.1,0.8-0.3,1.2c-0.2,0.3-0.5,0.6-0.8,0.9   c-0.3,0.2-0.7,0.4-1.2,0.5c-0.4,0.1-0.9,0.2-1.3,0.2c-0.6,0-1.1-0.1-1.6-0.2c-0.5-0.2-1-0.4-1.4-0.7c-0.4-0.3-0.8-0.7-1.1-1.2   s-0.6-1-0.8-1.6l-1.6,0.7c0.2,0.7,0.5,1.2,0.9,1.8c0.4,0.5,0.8,1,1.3,1.3c0.5,0.4,1.1,0.6,1.8,0.8c0.7,0.2,1.4,0.3,2.3,0.3   c1.1,0,2-0.1,2.8-0.4c0.8-0.3,1.5-0.6,2-1.1s0.9-1,1.2-1.6c0.3-0.6,0.4-1.3,0.4-2c0-0.6-0.1-1.2-0.4-1.7   C29.4,125.5,29.1,125,28.6,124.6z M41.8,128.6c-0.2,0.3-0.4,0.6-0.6,0.9c-0.3,0.3-0.5,0.5-0.8,0.7s-0.6,0.4-0.9,0.5   c-0.3,0.1-0.6,0.2-0.9,0.2c-0.4,0-0.8-0.1-1.2-0.2c-0.4-0.1-0.7-0.3-1-0.5s-0.5-0.5-0.6-0.8c-0.2-0.3-0.2-0.6-0.2-1v-9.7h-2.7v9.7   c0,0.6,0.1,1.1,0.3,1.7c0.2,0.5,0.5,1,0.9,1.3c0.4,0.4,0.9,0.7,1.4,0.9c0.5,0.2,1.1,0.3,1.7,0.3c0.4,0,0.8-0.1,1.3-0.2   c0.4-0.1,0.9-0.4,1.3-0.6c0.4-0.3,0.8-0.6,1.2-0.9c0.4-0.3,0.7-0.7,0.9-1.1v2.6h2.7v-13.7h-2.7L41.8,128.6L41.8,128.6z M47.9,112.4   v19.9h2.7v-20.7h-0.8L47.9,112.4z M59.9,130.7c-0.3,0.1-0.5,0.2-0.8,0.2c-0.2,0-0.4,0-0.6-0.1c-0.2-0.1-0.3-0.2-0.5-0.3   c-0.1-0.1-0.2-0.3-0.3-0.5c-0.1-0.2-0.1-0.4-0.1-0.6v-9.6h3.1v-1.1h-3.1V114h-0.8c-0.1,0.7-0.3,1.4-0.5,2s-0.4,1.2-0.7,1.6   c-0.3,0.5-0.7,0.8-1.2,1.1c-0.5,0.3-1.1,0.4-1.9,0.4v0.7h2.4v9.7c0,0.5,0.1,0.9,0.2,1.3c0.1,0.4,0.3,0.7,0.5,1s0.5,0.5,0.8,0.6   c0.3,0.2,0.7,0.2,1.2,0.2c0.9,0,1.6-0.2,2.2-0.5c0.6-0.4,1.1-0.9,1.5-1.5l-0.7-0.5C60.3,130.4,60.1,130.5,59.9,130.7z M71.8,119.4   c-0.4-0.3-0.9-0.6-1.5-0.7c-0.6-0.2-1.4-0.3-2.3-0.3c-0.7,0-1.4,0.1-2.1,0.2c-0.7,0.2-1.3,0.4-1.8,0.7c-0.5,0.3-0.9,0.6-1.2,1   s-0.4,0.8-0.4,1.3c0,0.2,0,0.4,0.1,0.6s0.2,0.4,0.3,0.5s0.3,0.3,0.5,0.3c0.2,0.1,0.4,0.1,0.6,0.1c0.3,0,0.5-0.1,0.7-0.2   c0.2-0.1,0.3-0.2,0.4-0.4c0.1-0.2,0.2-0.4,0.2-0.6s0.1-0.5,0.1-0.7c0-0.3,0-0.5,0.1-0.8s0.2-0.5,0.3-0.7c0.2-0.2,0.4-0.4,0.7-0.5   s0.7-0.2,1.1-0.2s0.8,0.1,1.1,0.2s0.6,0.3,0.8,0.6c0.2,0.3,0.4,0.6,0.5,1s0.2,1,0.2,1.6v1.1c-0.6,0.2-1.2,0.3-1.9,0.5   c-0.6,0.2-1.3,0.4-1.9,0.6c-0.6,0.2-1.2,0.5-1.7,0.8s-1,0.6-1.4,1s-0.7,0.8-1,1.3c-0.2,0.5-0.3,1-0.3,1.6c0,0.5,0.1,0.9,0.2,1.4   c0.2,0.4,0.4,0.8,0.7,1.1s0.7,0.5,1.1,0.7c0.4,0.2,0.9,0.3,1.5,0.3s1.1-0.1,1.5-0.2s0.8-0.3,1.2-0.5c0.4-0.2,0.7-0.4,1-0.7   s0.6-0.5,1-0.8v1.9h2.7V122c0-0.5-0.1-1-0.3-1.5C72.5,120.1,72.2,119.7,71.8,119.4z M70.2,129.5c-0.3,0.2-0.5,0.4-0.8,0.6   c-0.3,0.2-0.5,0.3-0.8,0.5c-0.3,0.1-0.5,0.2-0.8,0.3s-0.6,0.1-0.9,0.1s-0.6-0.1-0.8-0.2c-0.3-0.1-0.5-0.3-0.7-0.5s-0.4-0.5-0.5-0.8   s-0.2-0.6-0.2-0.9c0-0.3,0.1-0.6,0.2-0.9c0.2-0.3,0.4-0.6,0.7-0.8c0.3-0.3,0.6-0.5,1-0.7c0.4-0.2,0.7-0.4,1.2-0.6   c0.4-0.2,0.8-0.4,1.2-0.5c0.4-0.2,0.8-0.3,1.2-0.4V129.5z M87,119.6c-0.3-0.4-0.7-0.7-1.1-0.9c-0.4-0.2-0.9-0.3-1.3-0.3   c-0.9,0-1.8,0.2-2.7,0.7c-0.9,0.5-1.7,1.2-2.6,2.1v-2.5h-2.7v13.7h2.7v-10.2c0.3-0.3,0.6-0.6,1-0.8c0.3-0.2,0.7-0.5,1-0.6   c0.3-0.2,0.7-0.3,1-0.4s0.6-0.1,0.9-0.1c0.6,0,1.2,0.2,1.6,0.7s0.6,1.2,0.6,2.1v9.4H88v-10c0-0.6-0.1-1.1-0.3-1.6   C87.6,120.4,87.3,120,87,119.6z M110.3,124.3h3.4v6.2c-0.5,0.4-1.1,0.7-1.7,0.9c-0.6,0.2-1.3,0.3-2.1,0.3c-1.1,0-2.1-0.2-3-0.6   s-1.7-0.9-2.4-1.6c-0.7-0.7-1.2-1.6-1.6-2.6s-0.6-2.1-0.6-3.4c0-1.2,0.2-2.4,0.5-3.4c0.4-1,0.9-1.9,1.5-2.6   c0.7-0.7,1.4-1.2,2.3-1.6s1.9-0.6,3-0.6c1.2,0,2.2,0.3,3.2,1c0.9,0.7,1.7,1.7,2.5,3.2l1.3-0.9c-0.4-0.6-0.8-1.2-1.3-1.7   c-0.5-0.6-1.1-1-1.8-1.5c-0.7-0.4-1.4-0.8-2.2-1c-0.8-0.3-1.7-0.4-2.6-0.4c-1,0-1.9,0.1-2.8,0.4c-0.9,0.2-1.7,0.6-2.4,1   c-0.7,0.4-1.4,0.9-2,1.5s-1.1,1.2-1.5,1.9c-0.4,0.7-0.7,1.4-0.9,2.2c-0.2,0.8-0.3,1.6-0.3,2.4s0.1,1.6,0.3,2.4   c0.2,0.8,0.6,1.5,1,2.2c0.4,0.7,0.9,1.3,1.5,1.9s1.3,1,2,1.4c0.8,0.4,1.6,0.7,2.5,0.9c0.9,0.2,1.8,0.3,2.8,0.3c0.9,0,1.8,0,2.5-0.1   c0.7-0.1,1.4-0.2,2-0.3c0.6-0.1,1.2-0.3,1.7-0.5c0.5-0.2,1-0.5,1.6-0.7v-7.8h-6.3L110.3,124.3L110.3,124.3z M129.1,119.4   c-0.4-0.3-0.9-0.6-1.5-0.7c-0.6-0.2-1.4-0.3-2.3-0.3c-0.7,0-1.4,0.1-2.1,0.2c-0.7,0.2-1.3,0.4-1.8,0.7c-0.5,0.3-0.9,0.6-1.2,1   c-0.3,0.4-0.4,0.8-0.4,1.3c0,0.2,0,0.4,0.1,0.6s0.2,0.4,0.3,0.5c0.1,0.1,0.3,0.3,0.5,0.3c0.2,0.1,0.4,0.1,0.6,0.1   c0.3,0,0.5-0.1,0.7-0.2s0.3-0.2,0.4-0.4c0.1-0.2,0.2-0.4,0.2-0.6s0.1-0.5,0.1-0.7c0-0.3,0-0.5,0.1-0.8s0.2-0.5,0.3-0.7   c0.2-0.2,0.4-0.4,0.7-0.5c0.3-0.1,0.7-0.2,1.1-0.2s0.8,0.1,1.1,0.2c0.3,0.1,0.6,0.3,0.8,0.6c0.2,0.3,0.4,0.6,0.5,1s0.2,1,0.2,1.6   v1.1c-0.6,0.2-1.2,0.3-1.9,0.5c-0.6,0.2-1.3,0.4-1.9,0.6s-1.2,0.5-1.7,0.8s-1,0.6-1.4,1s-0.7,0.8-1,1.3c-0.2,0.5-0.4,1-0.4,1.6   c0,0.5,0.1,0.9,0.2,1.4c0.2,0.4,0.4,0.8,0.7,1.1c0.3,0.3,0.7,0.5,1.1,0.7s0.9,0.3,1.5,0.3s1.1-0.1,1.5-0.2s0.8-0.3,1.2-0.5   c0.4-0.2,0.7-0.4,1-0.7s0.6-0.5,0.9-0.8v1.9h2.7V122c0-0.5-0.1-1-0.3-1.5C129.8,120.1,129.5,119.7,129.1,119.4z M127.5,129.5   c-0.3,0.2-0.5,0.4-0.8,0.6c-0.3,0.2-0.5,0.3-0.8,0.5c-0.3,0.1-0.5,0.2-0.8,0.3s-0.6,0.1-0.9,0.1s-0.6-0.1-0.8-0.2   c-0.3-0.1-0.5-0.3-0.7-0.5s-0.4-0.5-0.5-0.8s-0.2-0.6-0.2-0.9c0-0.3,0.1-0.6,0.2-0.9c0.2-0.3,0.4-0.6,0.7-0.8   c0.3-0.3,0.6-0.5,1-0.7s0.8-0.4,1.2-0.6c0.4-0.2,0.8-0.4,1.2-0.5c0.4-0.2,0.8-0.3,1.2-0.4L127.5,129.5L127.5,129.5z M141.9,118.9   c-0.2-0.1-0.4-0.3-0.7-0.4s-0.5-0.1-0.8-0.1c-0.4,0-0.7,0.1-1.1,0.2c-0.4,0.2-0.7,0.4-1,0.6c-0.3,0.3-0.6,0.6-1,0.9   c-0.3,0.3-0.6,0.7-0.9,1.1v-2.6h-2.7v13.7h2.7v-9.5c0.2-0.3,0.4-0.6,0.6-0.8c0.2-0.3,0.4-0.5,0.6-0.7c0.2-0.2,0.4-0.3,0.5-0.4   c0.2-0.1,0.4-0.2,0.5-0.2c0.2,0,0.4,0,0.6,0.1c0.2,0.1,0.3,0.1,0.5,0.2c0.1,0.1,0.3,0.2,0.5,0.2c0.2,0.1,0.4,0.1,0.7,0.1   c0.5,0,0.9-0.1,1.2-0.3c0.3-0.2,0.4-0.6,0.4-1c0-0.2-0.1-0.4-0.2-0.6C142.3,119.2,142.1,119,141.9,118.9z M153.8,112.4v7.2   c-0.4-0.4-0.9-0.7-1.4-0.9c-0.5-0.2-1.1-0.4-1.7-0.4c-0.7,0-1.3,0.1-1.9,0.3c-0.6,0.2-1.2,0.4-1.7,0.8c-0.5,0.3-1,0.7-1.5,1.2   c-0.4,0.5-0.8,1-1.1,1.5s-0.6,1.1-0.7,1.7c-0.2,0.6-0.3,1.2-0.3,1.8c0,0.9,0.1,1.8,0.5,2.7c0.3,0.8,0.7,1.6,1.2,2.2   c0.5,0.6,1.1,1.1,1.8,1.5c0.7,0.4,1.5,0.6,2.3,0.6c0.4,0,0.8,0,1.2-0.1c0.4-0.1,0.8-0.2,1.2-0.3c0.4-0.1,0.8-0.3,1.1-0.5   c0.4-0.2,0.7-0.4,1-0.7v1.6h2.7v-21h-0.8L153.8,112.4z M153.8,129.8c-0.2,0.2-0.4,0.4-0.6,0.5c-0.2,0.2-0.5,0.3-0.7,0.4   c-0.3,0.1-0.5,0.2-0.8,0.3s-0.6,0.1-0.9,0.1c-0.6,0-1.2-0.2-1.7-0.5s-1-0.8-1.4-1.3c-0.4-0.6-0.7-1.2-0.9-2s-0.3-1.6-0.3-2.4   s0.1-1.5,0.3-2.2s0.5-1.3,0.8-1.7c0.4-0.5,0.8-0.9,1.2-1.1c0.5-0.3,1-0.4,1.5-0.4c0.4,0,0.8,0.1,1.2,0.3c0.4,0.2,0.8,0.4,1.1,0.7   c0.3,0.3,0.6,0.7,0.8,1.1s0.3,0.9,0.3,1.5L153.8,129.8L153.8,129.8z M170.8,128.5c-0.3,0.4-0.7,0.8-1.1,1.1   c-0.4,0.3-0.9,0.6-1.5,0.8c-0.5,0.2-1.1,0.3-1.7,0.3c-0.7,0-1.4-0.2-1.9-0.5c-0.6-0.3-1.1-0.8-1.5-1.3c-0.4-0.6-0.8-1.2-1-2   s-0.4-1.6-0.4-2.6h10.2c0-0.8-0.2-1.5-0.4-2.2c-0.3-0.7-0.7-1.3-1.2-1.8s-1.2-1-1.9-1.3s-1.6-0.5-2.5-0.5c-1,0-1.9,0.2-2.8,0.6   c-0.8,0.4-1.5,0.9-2.1,1.6s-1,1.5-1.4,2.4c-0.3,0.9-0.5,2-0.5,3c0,0.9,0.2,1.8,0.5,2.6c0.4,0.8,0.8,1.5,1.4,2.1   c0.6,0.6,1.3,1.1,2.1,1.4s1.7,0.5,2.6,0.5c0.7,0,1.4-0.1,2.1-0.4c0.7-0.3,1.3-0.6,1.9-1.1c0.6-0.5,1.1-1,1.5-1.6   c0.4-0.6,0.8-1.3,1-2l-0.8-0.3C171.3,127.6,171.1,128,170.8,128.5z M162,121.6c0.2-0.4,0.4-0.8,0.7-1.2c0.3-0.3,0.6-0.6,1-0.8   c0.4-0.2,0.8-0.3,1.2-0.3c0.5,0,1,0.1,1.4,0.3c0.4,0.2,0.8,0.4,1.1,0.8c0.3,0.3,0.6,0.7,0.8,1.2c0.2,0.4,0.3,0.9,0.3,1.4h-6.8   C161.7,122.5,161.8,122,162,121.6z M185.3,119.6c-0.3-0.4-0.7-0.7-1.1-0.9c-0.4-0.2-0.9-0.3-1.3-0.3c-0.9,0-1.8,0.2-2.7,0.7   s-1.7,1.2-2.6,2.1v-2.5h-2.7v13.7h2.7v-10.2c0.3-0.3,0.6-0.6,1-0.8c0.3-0.2,0.7-0.5,1-0.6c0.3-0.2,0.7-0.3,1-0.4s0.6-0.1,0.9-0.1   c0.6,0,1.2,0.2,1.6,0.7c0.4,0.5,0.6,1.2,0.6,2.1v9.4h2.7v-10c0-0.6-0.1-1.1-0.3-1.6C185.8,120.4,185.6,120,185.3,119.6z M198.7,127   c-0.2-0.4-0.5-0.8-0.9-1.1c-0.4-0.3-0.8-0.6-1.3-0.9c-0.5-0.2-1-0.5-1.5-0.7s-1-0.4-1.5-0.6s-0.9-0.4-1.3-0.7   c-0.4-0.2-0.7-0.5-0.9-0.8s-0.3-0.7-0.3-1.1c0-0.2,0.1-0.5,0.2-0.7c0.1-0.2,0.3-0.4,0.5-0.6s0.5-0.3,0.8-0.4s0.7-0.1,1.1-0.1   c0.7,0,1.4,0.2,2.1,0.6c0.6,0.4,1.2,1.1,1.7,1.9l1-0.9c-0.4-0.5-0.8-1-1.2-1.3s-0.8-0.6-1.1-0.8c-0.4-0.2-0.8-0.3-1.2-0.4   s-0.8-0.1-1.3-0.1c-0.7,0-1.3,0.1-1.9,0.3c-0.6,0.2-1.1,0.5-1.5,0.8s-0.7,0.7-1,1.2c-0.2,0.5-0.4,1-0.4,1.5c0,0.6,0.1,1.1,0.3,1.5   s0.5,0.8,0.8,1.1c0.3,0.3,0.7,0.6,1.2,0.9c0.4,0.3,0.9,0.5,1.3,0.7c0.5,0.2,0.9,0.4,1.3,0.6c0.4,0.2,0.8,0.4,1.2,0.7   c0.3,0.3,0.6,0.5,0.8,0.8c0.2,0.3,0.3,0.7,0.3,1.1c0,0.3-0.1,0.5-0.2,0.8c-0.1,0.2-0.3,0.5-0.5,0.6c-0.2,0.2-0.5,0.3-0.8,0.5   c-0.3,0.1-0.7,0.2-1,0.2c-0.4,0-0.8,0-1.1-0.1s-0.7-0.2-1-0.5c-0.3-0.2-0.6-0.5-0.9-0.8c-0.3-0.3-0.6-0.7-1-1.2l-1.1,1   c0.4,0.5,0.8,1,1.3,1.3c0.4,0.3,0.9,0.6,1.3,0.8c0.4,0.2,0.9,0.3,1.3,0.4c0.4,0.1,0.8,0.1,1.2,0.1c0.9,0,1.6-0.1,2.3-0.3   s1.2-0.5,1.6-0.9c0.4-0.4,0.8-0.8,1-1.3s0.3-1,0.3-1.6C199,127.9,198.9,127.4,198.7,127z"/>
	<path id="XMLID_39_" class="st0" d="M149.8,148.7c0.3-0.2,0.5-0.3,0.8-0.6c0.2-0.2,0.4-0.5,0.5-0.7c0.1-0.3,0.2-0.5,0.2-0.8   c0-0.4-0.1-0.7-0.2-1c-0.1-0.3-0.4-0.6-0.7-0.8c-0.3-0.2-0.7-0.4-1.1-0.5c-0.4-0.1-1-0.2-1.5-0.2h-3.4v9.8h1.6v-4.6h1.2l3.4,4.6   h1.9l-3.6-4.7C149.2,149,149.5,148.9,149.8,148.7z M147.9,148.6c-0.3,0.1-0.6,0.1-1,0.1H146v-4.1h1.4c0.3,0,0.6,0,0.8,0.1   c0.3,0.1,0.5,0.2,0.7,0.4c0.2,0.2,0.3,0.4,0.4,0.6c0.1,0.2,0.2,0.5,0.2,0.8s-0.1,0.6-0.2,0.9c-0.1,0.3-0.3,0.5-0.5,0.7   C148.5,148.3,148.3,148.5,147.9,148.6z M153.6,153.8h6.8v-0.6h-5.1v-4.4h3.4v-0.6h-3.4v-3.5h5.1v-0.6h-6.8V153.8z M167.4,149.5   c-0.3-0.2-0.5-0.4-0.9-0.6c-0.3-0.2-0.7-0.4-1-0.6s-0.7-0.4-1-0.5c-0.3-0.2-0.6-0.4-0.9-0.5c-0.3-0.2-0.5-0.4-0.6-0.6   c-0.2-0.2-0.2-0.4-0.2-0.7c0-0.2,0-0.4,0.1-0.5c0.1-0.2,0.2-0.3,0.3-0.5c0.2-0.1,0.3-0.3,0.6-0.3c0.2-0.1,0.5-0.1,0.8-0.1   s0.7,0,0.9,0.1c0.3,0.1,0.5,0.2,0.7,0.4c0.2,0.2,0.4,0.4,0.5,0.6c0.2,0.2,0.3,0.5,0.4,0.8l0.8-0.4c-0.2-0.7-0.6-1.3-1.2-1.7   c-0.5-0.4-1.3-0.6-2.2-0.6c-0.5,0-1,0.1-1.4,0.2c-0.4,0.1-0.7,0.3-1,0.5c-0.3,0.2-0.5,0.5-0.6,0.8c-0.1,0.3-0.2,0.7-0.2,1   c0,0.4,0.1,0.7,0.2,1c0.2,0.3,0.4,0.5,0.6,0.8c0.2,0.2,0.5,0.4,0.9,0.6c0.3,0.2,0.7,0.4,1,0.5c0.3,0.2,0.7,0.3,1,0.5   s0.6,0.4,0.9,0.5c0.2,0.2,0.4,0.4,0.6,0.6c0.2,0.2,0.2,0.5,0.2,0.8c0,0.2-0.1,0.5-0.2,0.7c-0.1,0.2-0.3,0.3-0.4,0.5   c-0.2,0.1-0.4,0.2-0.6,0.3c-0.2,0.1-0.5,0.1-0.7,0.1c-0.3,0-0.6,0-0.9-0.1c-0.3-0.1-0.5-0.2-0.8-0.4c-0.2-0.2-0.4-0.4-0.6-0.6   c-0.2-0.3-0.3-0.5-0.4-0.9l-0.9,0.4c0.1,0.4,0.3,0.7,0.5,1c0.2,0.3,0.4,0.5,0.7,0.7c0.3,0.2,0.6,0.3,1,0.4s0.8,0.2,1.3,0.2   c0.6,0,1.1-0.1,1.5-0.2s0.8-0.3,1.1-0.6c0.3-0.3,0.5-0.6,0.7-0.9c0.1-0.3,0.2-0.7,0.2-1.1c0-0.3-0.1-0.6-0.2-0.9   C167.9,150,167.7,149.8,167.4,149.5z M179.8,146.3c-0.2-0.4-0.5-0.7-0.8-1s-0.7-0.6-1.1-0.8c-0.4-0.2-0.8-0.4-1.3-0.5   s-0.9-0.2-1.5-0.2c-0.5,0-1,0.1-1.5,0.2s-0.9,0.3-1.3,0.5c-0.4,0.2-0.8,0.5-1.1,0.8s-0.6,0.6-0.8,1s-0.4,0.8-0.5,1.2   s-0.2,0.9-0.2,1.3c0,0.5,0.1,0.9,0.2,1.4c0.1,0.4,0.3,0.9,0.5,1.2c0.2,0.4,0.5,0.7,0.8,1.1c0.3,0.3,0.7,0.6,1.1,0.8   c0.4,0.2,0.8,0.4,1.3,0.5s0.9,0.2,1.5,0.2c0.5,0,1-0.1,1.5-0.2s0.9-0.3,1.3-0.5c0.4-0.2,0.8-0.5,1.1-0.8s0.6-0.7,0.8-1.1   c0.2-0.4,0.4-0.8,0.5-1.2c0.1-0.4,0.2-0.9,0.2-1.4s-0.1-0.9-0.2-1.3C180.2,147.1,180,146.7,179.8,146.3z M178.4,150.7   c-0.2,0.6-0.4,1.1-0.7,1.5s-0.7,0.7-1.1,1c-0.4,0.2-0.9,0.4-1.5,0.4s-1.1-0.1-1.5-0.4c-0.4-0.2-0.8-0.6-1.1-1s-0.5-0.9-0.7-1.5   c-0.1-0.6-0.2-1.2-0.2-1.9c0-0.7,0.1-1.3,0.2-1.8c0.1-0.6,0.4-1,0.7-1.4s0.6-0.7,1.1-0.9c0.4-0.2,0.9-0.3,1.5-0.3s1,0.1,1.5,0.3   c0.4,0.2,0.8,0.5,1.1,0.9s0.5,0.9,0.7,1.4c0.2,0.6,0.2,1.2,0.2,1.8C178.6,149.6,178.5,150.2,178.4,150.7z M188,148.7   c0.3-0.2,0.5-0.3,0.8-0.6c0.2-0.2,0.4-0.5,0.5-0.7c0.1-0.3,0.2-0.5,0.2-0.8c0-0.4-0.1-0.7-0.2-1c-0.1-0.3-0.4-0.6-0.7-0.8   c-0.3-0.2-0.7-0.4-1.1-0.5c-0.4-0.1-1-0.2-1.5-0.2h-3.4v9.8h1.6v-4.6h1.1l3.4,4.6h1.9l-3.6-4.7C187.4,149,187.7,148.9,188,148.7z    M186.1,148.6c-0.3,0.1-0.7,0.1-1,0.1h-0.9v-4.1h1.4c0.3,0,0.6,0,0.8,0.1c0.3,0.1,0.5,0.2,0.6,0.4c0.2,0.2,0.3,0.4,0.4,0.6   c0.1,0.2,0.2,0.5,0.2,0.8s-0.1,0.6-0.2,0.9c-0.1,0.3-0.3,0.5-0.5,0.7C186.7,148.3,186.5,148.5,186.1,148.6z M190.3,144.1v0.6h3.5   v9.1h1.6v-9.1h3.5v-0.6H190.3z"/>
</g>
<path id="XMLID_4_" class="st1" d="M78.7,58.7c8.3-13,25.5-16.7,38.5-8.4c8.9,5.7,13.4,15.6,12.7,25.4l-1.2-0.8l-12.2,11.6l-6.3,4.8  l-10.6,6l-3.7,3.5c-3-0.7-6-1.9-8.8-3.7C74.2,88.8,70.4,71.6,78.7,58.7z"/>
<path id="XMLID_3_" class="st0" d="M146.3,70.5c-19.3-3-35.8,40.9-67.2,31l0.3-0.9c23.5,5.5,41.4-37.9,67.2-30.8L146.3,70.5z"/>
<path id="XMLID_2_" class="st0" d="M135.3,60c-17.4-2.7-32.3,36.8-60.5,28l0.3-0.8c21.2,5,37.2-34.1,60.5-27.7L135.3,60z"/>
<path id="XMLID_1_" class="st0" d="M124.2,49.5c-15.4-2.4-28.6,32.7-53.7,24.8l0.3-0.7c18.8,4.4,33.1-30.3,53.7-24.7L124.2,49.5z"/>
</svg>